<?xml version="1.0" encoding="utf-8"?>
<!-- Generator: Adobe Illustrator 22.1.0, SVG Export Plug-In . SVG Version: 6.00 Build 0)  -->
<svg version="1.1" id="Layer_1" xmlns="http://www.w3.org/2000/svg" xmlns:xlink="http://www.w3.org/1999/xlink" x="0px" y="0px"
	 viewBox="0 0 150 150" style="enable-background:new 0 0 150 150;" xml:space="preserve">
<style type="text/css">
	.st0{fill:#4DABFF;}
	.st1{fill:#007BFF;}
	.st2{fill:#FFFFFF;}
</style>
<g>
	<path class="st0" d="M127.7,85.2c0,3.5-2.8,6.4-6.4,6.4H73.7l4.6,20.7H53.9l4.6-20.7H11c-3.5,0-6.4-2.8-6.4-6.4V10.7
		c0-3.5,2.8-6.4,6.4-6.4h110.3c3.5,0,6.4,2.8,6.4,6.4L127.7,85.2z"/>
	<path class="st1" d="M127.6,10.7v1.6c0,3.7-3.1,6.6-6.8,6.3C50.2,13.4,15.2,50.2,15.2,85.2c0,0.2,0,0.4,0,0.6
		c0.4,3.7-3.2,6.7-6.7,5.3c-2.3-0.9-4-3.2-4-5.9V10.7c0-3.5,2.8-6.4,6.4-6.4h110.3C124.8,4.3,127.6,7.2,127.6,10.7z"/>
	<path class="st1" d="M73.7,91.6l4.6,20.7H53.9l4.6-20.7H73.7z"/>
	<path class="st0" d="M75.5,99.6H56.7l1.8-8.1h15.2L75.5,99.6z"/>
	<path class="st0" d="M127.7,76.8l0,8.4c0,3.5-2.8,6.4-6.4,6.4c-3.2,0-107.4,0-110.3,0c-3.5,0-6.4-2.8-6.4-6.4v-8.4L127.7,76.8z"/>
	<path class="st1" d="M15.3,85.8c0.4,3.9-3.5,7-7.3,5c0,0,0,0,0,0c-0.2-0.1-0.5-0.3-0.8-0.5c0,0,0,0,0,0c-1.5-1.2-2.6-2.9-2.6-5.1
		v-8.4h11.3C15.2,80.9,15.2,84.9,15.3,85.8L15.3,85.8z"/>
	<path class="st2" d="M89.2,91.6c0,1.2-0.9,2.1-2.1,2.1H11c-4.7,0-8.5-3.8-8.5-8.5V10.7C2.5,6,6.3,2.2,11,2.2h110.3
		c4.7,0,8.5,3.8,8.5,8.5v51.8c0,1.2-0.9,2.1-2.1,2.1c-1.2,0-2.1-0.9-2.1-2.1V10.7c0-2.3-1.9-4.2-4.2-4.2H11c-2.3,0-4.2,1.9-4.2,4.2
		v63.9H81c1.2,0,2.1,0.9,2.1,2.1c0,1.2-0.9,2.1-2.1,2.1H6.7v6.3c0,2.3,1.9,4.2,4.2,4.2h76.1C88.2,89.4,89.2,90.4,89.2,91.6z"/>
	<path class="st2" d="M88.4,112.2c0,1.2-0.9,2.1-2.1,2.1c-26.5,0-19.8,0-40.3,0c-1.2,0-2.1-0.9-2.1-2.1c0-1.2,0.9-2.1,2.1-2.1h6.3
		l2.4-10.7c0.3-1.1,1.4-1.9,2.5-1.6c1.1,0.3,1.9,1.4,1.6,2.5l-2.2,9.8h19.1l-2.2-9.8c-0.3-1.1,0.5-2.3,1.6-2.5
		c1.1-0.3,2.3,0.5,2.5,1.6l2.4,10.7h6.3C87.4,110.1,88.4,111.1,88.4,112.2L88.4,112.2z"/>
	<path class="st0" d="M145.4,59.9v79.4c0,3.5-2.8,6.4-6.4,6.4h-37.3c-3.5,0-6.4-2.8-6.4-6.4V59.9c0-3.5,2.8-6.4,6.4-6.4h37.3
		C142.6,53.6,145.4,56.4,145.4,59.9z"/>
	<path class="st1" d="M145.4,59.9v17.6c0,2.3-1.7,4.3-4,4.7c-15,2.5-28.5,11-37.2,25.1c-2.5,4.1-8.8,2.3-8.8-2.5V59.9
		c0-3.5,2.8-6.4,6.4-6.4h37.3C142.6,53.6,145.4,56.4,145.4,59.9L145.4,59.9z"/>
	<path class="st2" d="M145.4,65.4c1.1,0,2.1-0.9,2.1-2.1v-3.4c0-4.7-3.8-8.4-8.4-8.4h-37.3c-4.7,0-8.4,3.8-8.4,8.4v79.4
		c0,4.7,3.8,8.4,8.4,8.4h37.3c4.7,0,8.4-3.8,8.4-8.4V97.6c0-1.2-0.9-2.1-2.1-2.1c-1.2,0-2.1,0.9-2.1,2.1v41.8c0,2.4-1.9,4.3-4.3,4.3
		h-37.3c-2.4,0-4.3-1.9-4.3-4.3V59.9c0-2.4,1.9-4.3,4.3-4.3h3.1l2.2,4c1.1,1.9,3.1,3.1,5.3,3.1h16c1.1,0,2.1-0.9,2.1-2.1
		c0-1.2-0.9-2.1-2.1-2.1h-16c-0.7,0-1.3-0.4-1.6-1l-1.1-2h29.4c2.4,0,4.3,1.9,4.3,4.3v3.4C143.3,64.5,144.3,65.4,145.4,65.4z"/>
</g>
</svg>
