<?xml version="1.0" encoding="utf-8"?>
<!-- Generator: Adobe Illustrator 22.1.0, SVG Export Plug-In . SVG Version: 6.00 Build 0)  -->
<svg version="1.1" id="Слой_1" xmlns="http://www.w3.org/2000/svg" xmlns:xlink="http://www.w3.org/1999/xlink" x="0px" y="0px"
	 viewBox="0 0 50 50" style="enable-background:new 0 0 50 50;" xml:space="preserve">
<style type="text/css">
	.st0{fill:#FFFFFF;}
	.st1{fill:#59A9FF;}
</style>
<g>
	<g>
		<path class="st0" d="M50,25c0,13.5-10.7,24.5-24,25c-0.3,0-0.6,0-1,0c-2.6,0-5-0.4-7.4-1.1C7.4,45.8,0,36.2,0,25
			C0,11.2,11.2,0,25,0S50,11.2,50,25z"/>
	</g>
	<g>
		<path class="st1" d="M26,22.2v2.8h8.3v6H26v19c-0.3,0-0.6,0-1,0c-2.6,0-5-0.4-7.4-1.1V31h-5.3v-6l5.3,0v-3.2
			c0-3.8,0.9-6.6,2.8-8.3c1.8-1.7,4.9-2.6,9.1-2.6c3,0,5.7,0.4,8.1,1.2l-2,5.9c-1.8-0.5-3.4-0.8-5-0.8c-1.6,0-2.7,0.5-3.5,1.5
			C26.3,19.6,26,20.8,26,22.2z"/>
	</g>
</g>
</svg>
