<?xml version="1.0" encoding="utf-8"?>
<!-- Generator: Adobe Illustrator 22.1.0, SVG Export Plug-In . SVG Version: 6.00 Build 0)  -->
<svg version="1.1" id="Layer_1" xmlns="http://www.w3.org/2000/svg" xmlns:xlink="http://www.w3.org/1999/xlink" x="0px" y="0px"
	 viewBox="0 0 150 150" style="enable-background:new 0 0 150 150;" xml:space="preserve">
<style type="text/css">
	.st0{fill:#007BFF;}
	.st1{fill:#4DABFF;}
	.st2{fill:#FFFFFF;}
</style>
<g>
	<g>
		<path class="st0" d="M120.1,122.8H22.3c-2.3,0-4.2-1.9-4.2-4.2V8.9c0-2.3,1.9-4.2,4.2-4.2h97.8c2.3,0,4.2,1.9,4.2,4.2v109.6
			C124.4,120.9,122.5,122.8,120.1,122.8z"/>
	</g>
	<g>
		<path class="st1" d="M120.3,4.6h-3.5v106.5c0,2.3-1.8,4.1-4.1,4.1H18.1v3.5c0,2.3,1.8,4.1,4.1,4.1h98.1c2.3,0,4.1-1.8,4.1-4.1V8.7
			C124.4,6.5,122.6,4.6,120.3,4.6L120.3,4.6z"/>
	</g>
	<g>
		<path class="st0" d="M107.3,92.9H35.2c-1.6,0-2.8-1.3-2.8-2.8V32c0-1.6,1.3-2.8,2.8-2.8h72.1c1.6,0,2.8,1.3,2.8,2.8v58.1
			C110.1,91.6,108.9,92.9,107.3,92.9z"/>
	</g>
	<g>
		<g>
			<circle class="st1" cx="110.1" cy="123.6" r="21.8"/>
		</g>
		<g>
			<path class="st0" d="M121.3,104.9c1.9,3.3,3.1,7.1,3.1,11.1c0,12-9.7,21.8-21.8,21.8c-4.1,0-7.9-1.1-11.1-3.1
				c3.8,6.4,10.7,10.6,18.7,10.6c12,0,21.8-9.7,21.8-21.8C131.9,115.7,127.6,108.7,121.3,104.9L121.3,104.9z"/>
		</g>
	</g>
	<g>
		<path class="st1" d="M35.2,92.9h69.2L77.3,65.8c-1.1-1.1-2.9-1.1-4,0l-5.9,5.9c-0.6,0.6-1.4,0.6-2,0L48.2,54.6
			c-1.1-1.1-2.9-1.1-4,0L32.4,66.5v23.6C32.4,91.6,33.6,92.9,35.2,92.9z"/>
	</g>
	<g>
		<circle class="st2" cx="89.2" cy="49.3" r="5.4"/>
	</g>
	<g>
		<path class="st2" d="M112.3,90.1V32c0-2.7-2.2-5-5-5H35.2c-2.7,0-5,2.2-5,5v58.1c0,2.7,2.2,5,5,5h72.1
			C110,95,112.3,92.8,112.3,90.1z M34.5,90.1V67.4l11.2-11.2c0.2-0.2,0.4-0.2,0.5-0.2c0.1,0,0.3,0,0.5,0.2l2.4,2.4
			c0.8,0.8,2.2,0.8,3,0c0.8-0.8,0.8-2.2,0-3l-2.4-2.4c-0.9-0.9-2.2-1.5-3.5-1.5c-1.3,0-2.6,0.5-3.5,1.5l-8.2,8.2V32
			c0-0.4,0.3-0.7,0.7-0.7h72.1c0.4,0,0.7,0.3,0.7,0.7v58.1c0,0.4-0.3,0.7-0.7,0.7h-2.1L78.8,64.3c-1.9-1.9-5.1-1.9-7,0l-5.4,5.4
			l-7.4-7.4c-0.8-0.8-2.2-0.8-3,0c-0.8,0.8-0.8,2.2,0,3l7.9,7.9c0.7,0.7,1.6,1,2.5,1s1.8-0.4,2.5-1l5.9-5.9c0.3-0.3,0.7-0.3,1,0
			l23.4,23.4H35.2C34.8,90.8,34.5,90.5,34.5,90.1L34.5,90.1z"/>
		<path class="st2" d="M126.5,106.3V79.1c0-1.2-1-2.1-2.1-2.1s-2.1,1-2.1,2.1v24c-3.6-2.1-7.7-3.3-12.1-3.3
			c-12.2,0-22.2,9.1-23.7,20.9H22.3c-1.2,0-2.1-1-2.1-2.1V8.9c0-1.2,1-2.1,2.1-2.1h97.8c1.2,0,2.1,1,2.1,2.1v59.6
			c0,1.2,1,2.1,2.1,2.1s2.1-1,2.1-2.1V8.9c0-3.5-2.9-6.4-6.4-6.4H22.3c-3.5,0-6.4,2.9-6.4,6.4v109.6c0,3.5,2.9,6.4,6.4,6.4h64
			c0.2,4.4,1.6,8.6,4.1,12.2c0.7,1,2,1.2,3,0.6c1-0.7,1.2-2,0.6-3c-2.2-3.3-3.4-7.1-3.4-11.1c0-10.8,8.8-19.6,19.6-19.6
			s19.6,8.8,19.6,19.6s-8.8,19.6-19.6,19.6c-3.2,0-6.4-0.8-9.3-2.3c-1-0.6-2.3-0.2-2.9,0.9c-0.6,1-0.2,2.3,0.9,2.9
			c3.4,1.8,7.3,2.8,11.3,2.8c13.2,0,23.9-10.7,23.9-23.9C134,116.8,131.1,110.6,126.5,106.3L126.5,106.3z"/>
		<path class="st2" d="M110.1,112.7c-1.2,0-2.1,1-2.1,2.1v6.7h-6.7c-1.2,0-2.1,1-2.1,2.1s1,2.1,2.1,2.1h6.7v6.7c0,1.2,1,2.1,2.1,2.1
			s2.1-1,2.1-2.1v-6.7h6.7c1.2,0,2.1-1,2.1-2.1s-1-2.1-2.1-2.1h-6.7v-6.7C112.3,113.6,111.3,112.7,110.1,112.7z"/>
		<ellipse class="st2" cx="35.3" cy="105" rx="3" ry="3"/>
		<ellipse class="st2" cx="45.8" cy="105" rx="3" ry="3"/>
		<ellipse class="st2" cx="56.4" cy="105" rx="3" ry="3"/>
		<path class="st2" d="M79.4,20.1c1.2,0,2.1-1,2.1-2.1s-1-2.1-2.1-2.1h-9.2c-1.2,0-2.1,1-2.1,2.1s1,2.1,2.1,2.1H79.4z"/>
		<path class="st2" d="M59.3,20.1c1.2,0,2.1-1,2.1-2.1s-1-2.1-2.1-2.1H34.2c-1.2,0-2.1,1-2.1,2.1s1,2.1,2.1,2.1H59.3z"/>
		<path class="st2" d="M89.2,56.8c4.1,0,7.5-3.4,7.5-7.5s-3.4-7.5-7.5-7.5s-7.5,3.4-7.5,7.5S85.1,56.8,89.2,56.8z M89.2,46
			c1.8,0,3.3,1.5,3.3,3.3c0,1.8-1.5,3.3-3.3,3.3S86,51.1,86,49.3C86,47.5,87.4,46,89.2,46z"/>
	</g>
</g>
</svg>
