<?xml version="1.0" encoding="utf-8"?>
<!-- Generator: Adobe Illustrator 22.1.0, SVG Export Plug-In . SVG Version: 6.00 Build 0)  -->
<svg version="1.1" id="Слой_1" xmlns="http://www.w3.org/2000/svg" xmlns:xlink="http://www.w3.org/1999/xlink" x="0px" y="0px"
	 viewBox="0 0 383.1 95" style="enable-background:new 0 0 383.1 95;" xml:space="preserve">
<style type="text/css">
	.st0{fill:#FFFFFF;}
</style>
<g>
	<path class="st0" d="M123.3,49.8c0-6-2-11-6.2-15c-4.1-4-9.2-6-15.3-6c-6.2,0-11.3,2-15.4,6c-4.1,4-6.1,8.9-6.1,14.8
		c0,5.9,2,10.9,6.1,14.9c4.1,4,9.2,5.9,15.4,5.9c4.9,0,9.2-1.2,12.9-3.8c3.7-2.6,6.3-5.9,7.8-10.1h-12.1c-1.3,2.3-4.6,4-8.4,4
		c-4.7,0-8.3-2.8-9.5-7.3H123C123.2,52.4,123.3,51.3,123.3,49.8z M101.8,38.6c4.4,0,8,2.7,9.2,7.1H92.6
		C93.9,41.3,97.3,38.6,101.8,38.6z M153.3,28.8c-4.8,0-8.8,1.8-12,5.4v-4.5h-11.4v54.7h11.4V65.1c3.2,3.6,7.2,5.4,12,5.4
		c5.5,0,10.1-2,13.8-5.9c3.7-4,5.5-9,5.5-14.9s-1.8-10.9-5.5-14.8C163.3,30.8,158.8,28.8,153.3,28.8z M144,56.6
		c-1.8-1.9-2.7-4.2-2.7-7c0-2.8,0.9-5.2,2.7-7c1.9-1.9,4.2-2.8,7-2.8c2.8,0,5.2,0.9,7,2.8c1.9,1.9,2.8,4.2,2.8,7
		c0,2.8-0.9,5.2-2.8,7c-1.8,1.9-4.1,2.8-7,2.8C148.2,59.4,145.8,58.5,144,56.6z M213.8,64.5c4.1-4,6.2-9,6.2-14.9s-2-10.9-6.2-14.8
		c-4.1-4-9.1-6-15.3-6c-6.2,0-11.3,2-15.4,6c-4.1,4-6.1,8.9-6.1,14.8c0,5.9,2,10.9,6.1,14.9c4.1,4,9.2,5.9,15.4,5.9
		C204.7,70.5,209.7,68.5,213.8,64.5z M191.5,56.6c-1.8-1.9-2.7-4.2-2.7-7c0-2.8,0.9-5.2,2.7-7c1.9-1.9,4.2-2.8,7-2.8
		c2.8,0,5.2,0.9,7,2.8c1.9,1.9,2.8,4.2,2.8,7c0,2.8-0.9,5.2-2.8,7c-1.8,1.9-4.1,2.8-7,2.8C195.7,59.4,193.3,58.5,191.5,56.6z
		 M238.1,29.7h-11.4v39.8h11.4V50.9c0-6.2,4-10.2,11.1-10.2V29.1c-4.3,0-8,2-11.1,5.9V29.7z M280.9,29.7h-9.5V18H260v11.7h-7v10.4h7
		v29.4h20.9V59.1h-9.5V40.1h9.5V29.7L280.9,29.7z M293.6,24.6c4.1,0,7.1-3,7.1-7c0-4-3-7-7.1-7c-4,0-7,3-7,7
		C286.5,21.6,289.6,24.6,293.6,24.6z M299.3,69.5V29.7h-11.4v39.8H299.3z M333.6,49.5l13.8-19.8h-13.7L326,41.5l-7.7-11.8h-13.8
		l13.8,19.8l-14,20h13.7l7.9-12l7.9,12h13.8L333.6,49.5L333.6,49.5z"/>
	<path class="st0" d="M72.1,64.5c-2.7-5-5.1-9.2-7.8-14.2c5.9-2.8,9.7-8.6,9.7-15.5c0-5.2-1.8-9.5-5.4-12.9c-3.5-3.4-8-5.2-13.4-5.2
		H35.9v35.5c5.3,0,10.5,0,15.8,0c3.1,6.1,5.7,11.5,8.8,17.7C64.4,68.1,68.2,66.3,72.1,64.5L72.1,64.5z M55,28.2c3.7,0,6.6,3,6.6,6.8
		s-2.8,6.7-6.6,6.7h-7V28.2H55z"/>
	<path class="st0" d="M42,69.9c3.6,0,6.5-2.9,6.5-6.5c0-3.6-2.9-6.5-6.5-6.5c-3.6,0-6.5,2.9-6.5,6.5C35.5,67,38.4,69.9,42,69.9z"/>
</g>
</svg>
