<?xml version="1.0" encoding="utf-8"?>
<!-- Generator: Adobe Illustrator 22.1.0, SVG Export Plug-In . SVG Version: 6.00 Build 0)  -->
<svg version="1.1" id="Layer_1" xmlns="http://www.w3.org/2000/svg" xmlns:xlink="http://www.w3.org/1999/xlink" x="0px" y="0px"
	 viewBox="0 0 150 150" style="enable-background:new 0 0 150 150;" xml:space="preserve">
<style type="text/css">
	.st0{fill:#007BFF;}
	.st1{fill:#4DABFF;}
	.st2{fill:#FFFFFF;}
</style>
<g>
	<path class="st0" d="M34.5,132.2c-7.2,7.9-20.5,2.9-20.5-7.9c0-6.5,5.3-11.8,11.8-11.8C36,112.5,41.3,124.7,34.5,132.2z"/>
	<path class="st0" d="M136,124.2c0,10.8-13.3,15.8-20.5,7.9c-6.8-7.5-1.5-19.7,8.7-19.7C130.7,112.5,136,117.7,136,124.2z"/>
	<path class="st0" d="M75,37.5c20.5,0,37.5,16.9,37.5,37.5S95.5,112.5,75,112.5S37.5,95.5,37.5,75S54.5,37.5,75,37.5L75,37.5z"/>
	<path class="st1" d="M82.2,38.3c6.6,1.3,6.6,10.8,0,12.2c-16.5,3.7-29.7,18.4-29.6,36.9c0,6.8-9.2,8.8-12,2.6
		C29.8,65.1,48.4,37.5,75,37.5C77.5,37.5,79.9,37.8,82.2,38.3L82.2,38.3z"/>
	<path class="st0" d="M37.5,25.8c0,10.3-12.2,15.5-19.7,8.7C9.9,27.3,15,14,25.8,14C32.3,14,37.5,19.2,37.5,25.8z"/>
	<path class="st0" d="M124.2,14c10.8,0,15.8,13.3,7.9,20.5c-7.5,6.8-19.7,1.6-19.7-8.7C112.5,19.2,117.7,14,124.2,14z"/>
	<g>
		<path class="st1" d="M27.1,21c-2.7,1.2-4.9,3.4-6.1,6c-1.7,3.6-7.1,2.5-7-1.5c0.1-6.3,5.2-11.4,11.4-11.6
			C29.4,13.9,30.7,19.4,27.1,21z"/>
		<path class="st1" d="M125.6,21c-2.7,1.2-4.9,3.4-6.1,6c-1.7,3.6-7.1,2.5-7-1.5c0.1-6.3,5.2-11.4,11.4-11.6
			C127.9,13.9,129.2,19.4,125.6,21L125.6,21z"/>
		<path class="st1" d="M27.1,119.5c-2.7,1.2-4.9,3.4-6.1,6c-1.7,3.6-7.1,2.5-7-1.5c0.1-6.3,5.2-11.4,11.4-11.6
			C29.4,112.3,30.7,117.8,27.1,119.5z"/>
		<path class="st1" d="M125.6,119.5c-2.7,1.2-4.9,3.4-6.1,6c-1.7,3.6-7.1,2.5-7-1.5c0.1-6.3,5.2-11.4,11.4-11.6
			C127.9,112.3,129.2,117.8,125.6,119.5L125.6,119.5z"/>
	</g>
	<path class="st2" d="M75,40c-19.3,0-35,15.7-35,35s15.7,35,35,35c14.5,0,27.7-9.1,32.8-22.7c0.5-1.2,1.9-1.9,3.1-1.4
		c1.2,0.5,1.9,1.9,1.4,3.1c-5.8,15.2-20.4,25.8-37.3,25.8C53,114.9,35.1,97,35.1,75S53,35.1,75,35.1S114.9,53,114.9,75
		c0,1.3-1.1,2.4-2.4,2.4c-1.3,0-2.4-1.1-2.4-2.4C110,55.7,94.3,40,75,40L75,40z"/>
	<path class="st2" d="M104.8,8.9C82.4-1.2,55.8,0.6,34.7,14.7c-2.4-2-5.5-3.2-8.9-3.2c-12,0-18.5,13.9-11,23.1
		C-1.6,59-1.6,91,14.7,115.3c-7.5,9.2-0.9,23.1,11,23.1c7.8,0,14.2-6.4,14.2-14.2c0-11.1-12.2-17.8-21.6-12.1v0
		c-14.8-22.5-14.8-51.7,0-74.2C27.8,43.6,40,36.8,40,25.8c0-2.7-0.8-5.2-2.1-7.4c19.6-12.9,44.2-14.5,64.9-5.1
		c1.2,0.6,2.6,0,3.2-1.2C106.6,10.9,106.1,9.5,104.8,8.9z M25.8,114.9c5.2,0,9.4,4.2,9.4,9.4s-4.2,9.4-9.4,9.4
		c-5.2,0-9.4-4.2-9.4-9.4S20.6,114.9,25.8,114.9z M25.8,35.1c-5.2,0-9.4-4.2-9.4-9.4c0-5.2,4.2-9.4,9.4-9.4c5.2,0,9.4,4.2,9.4,9.4
		C35.1,30.9,30.9,35.1,25.8,35.1z"/>
	<path class="st2" d="M135.3,34.7L135.3,34.7c7.5-9.2,0.9-23.1-11-23.1c-7.8,0-14.2,6.4-14.2,14.2c0,11.1,12.2,17.8,21.6,12.1
		c14.8,22.5,14.8,51.7,0,74.2c-9.4-5.7-21.6,1.1-21.6,12.1c0,2.7,0.8,5.2,2.1,7.4c-19.8,13-44.9,14.5-65.8,4.7
		c-1.2-0.6-2.6,0-3.2,1.2c-0.6,1.2,0,2.6,1.2,3.2c22.7,10.7,49.8,8.9,71.1-5.4c9.2,7.5,23.1,0.9,23.1-11c0-3.4-1.2-6.5-3.2-8.9
		C151.6,91,151.6,59,135.3,34.7z M124.2,35.1c-5.2,0-9.4-4.2-9.4-9.4s4.2-9.4,9.4-9.4c5.2,0,9.4,4.2,9.4,9.4S129.4,35.1,124.2,35.1z
		 M124.2,133.6c-5.2,0-9.4-4.2-9.4-9.4s4.2-9.4,9.4-9.4c5.2,0,9.4,4.2,9.4,9.4S129.4,133.6,124.2,133.6z"/>
	<g>
		<defs>
			<path id="SVGID_1_" d="M70.4,89.3c-0.7,0-1.4-0.3-1.9-0.8L56,76c-1.1-1.1-1.1-2.8,0-3.8c1.1-1.1,2.8-1.1,3.8,0l12.6,12.6
				c1.1,1.1,1.1,2.8,0,3.8C71.8,89.1,71.1,89.3,70.4,89.3z"/>
		</defs>
		<use xlink:href="#SVGID_1_"  style="overflow:visible;fill:#FFFFFF;"/>
		<clipPath id="SVGID_2_">
			<use xlink:href="#SVGID_1_"  style="overflow:visible;"/>
		</clipPath>
	</g>
	<g>
		<defs>
			<path id="SVGID_3_" d="M70.5,89.3c-0.7,0-1.4-0.3-1.9-0.8c-1.1-1.1-1.1-2.8,0-3.8l23.3-23.3c1.1-1.1,2.8-1.1,3.8,0
				c1.1,1.1,1.1,2.8,0,3.8L72.4,88.6C71.9,89.1,71.2,89.3,70.5,89.3z"/>
		</defs>
		<use xlink:href="#SVGID_3_"  style="overflow:visible;fill:#FFFFFF;"/>
		<clipPath id="SVGID_4_">
			<use xlink:href="#SVGID_3_"  style="overflow:visible;"/>
		</clipPath>
	</g>
</g>
</svg>
