<?xml version="1.0" encoding="utf-8"?>
<!-- Generator: Adobe Illustrator 22.1.0, SVG Export Plug-In . SVG Version: 6.00 Build 0)  -->
<svg version="1.1" id="Слой_1" xmlns="http://www.w3.org/2000/svg" xmlns:xlink="http://www.w3.org/1999/xlink" x="0px" y="0px"
	 viewBox="0 0 50 50" style="enable-background:new 0 0 50 50;" xml:space="preserve">
<style type="text/css">
	.st0{fill:#CECECE;}
	.st1{fill:#FFFFFF;}
	.st2{fill:#59A9FF;}
</style>
<g>
	<g>
		<g>
			<g>
				<path class="st0" d="M50,25c0,13.5-10.7,24.5-24,25c-0.3,0-0.6,0-1,0c-2.6,0-5-0.4-7.4-1.1C7.4,45.8,0,36.2,0,25
					C0,11.2,11.2,0,25,0C38.8,0,50,11.2,50,25z"/>
			</g>
		</g>
		<g>
			<g>
				<path class="st1" d="M50,25c0,13.5-10.7,24.5-24,25c-0.3,0-0.6,0-1,0c-2.6,0-5-0.4-7.4-1.1C7.4,45.8,0,36.2,0,25
					C0,11.2,11.2,0,25,0C38.8,0,50,11.2,50,25z"/>
			</g>
		</g>
	</g>
	<g>
		<g>
			<path class="st2" d="M34.1,40.4H15.9c-3.4,0-6.1-2.8-6.1-6.1V16.9c0-3.4,2.8-6.1,6.1-6.1h18.2c3.4,0,6.1,2.8,6.1,6.1v17.4
				C40.3,37.7,37.5,40.4,34.1,40.4z M15.9,12.7c-2.3,0-4.2,1.9-4.2,4.2v17.4c0,2.3,1.9,4.2,4.2,4.2h18.2c2.3,0,4.2-1.9,4.2-4.2V16.9
				c0-2.3-1.9-4.2-4.2-4.2H15.9z"/>
		</g>
		<g>
			<path class="st2" d="M25,33.8c-4.6,0-8.4-3.7-8.4-8.2c0-4.5,3.8-8.2,8.4-8.2c4.6,0,8.4,3.7,8.4,8.2C33.4,30.1,29.6,33.8,25,33.8z
				 M25,19.3c-3.6,0-6.5,2.8-6.5,6.2s2.9,6.2,6.5,6.2c3.6,0,6.5-2.8,6.5-6.2S28.6,19.3,25,19.3z"/>
		</g>
		<path class="st2" d="M35.7,16.5c0,0.7-0.6,1.4-1.4,1.4c-0.8,0-1.4-0.6-1.4-1.4c0-0.7,0.6-1.4,1.4-1.4C35,15.2,35.7,15.8,35.7,16.5
			z"/>
	</g>
</g>
</svg>
