<?xml version="1.0" encoding="utf-8"?>
<!-- Generator: Adobe Illustrator 22.1.0, SVG Export Plug-In . SVG Version: 6.00 Build 0)  -->
<svg version="1.1" id="Layer_1" xmlns="http://www.w3.org/2000/svg" xmlns:xlink="http://www.w3.org/1999/xlink" x="0px" y="0px"
	 viewBox="0 0 150 150" style="enable-background:new 0 0 150 150;" xml:space="preserve">
<style type="text/css">
	.st0{fill:#4DABFF;}
	.st1{fill:#007BFF;}
	.st2{fill:#FFFFFF;}
</style>
<g>
	<circle class="st0" cx="39.8" cy="56.8" r="29.5"/>
	<circle class="st1" cx="39.8" cy="56.8" r="22.7"/>
	<rect x="10.3" y="104.5" class="st1" width="59" height="13.6"/>
	<rect x="10.3" y="104.5" class="st0" width="9.1" height="13.6"/>
	<rect x="10.3" y="131.8" class="st1" width="59" height="13.6"/>
	<rect x="10.3" y="131.8" class="st0" width="9.1" height="13.6"/>
	<rect x="14.8" y="118.1" class="st1" width="59" height="13.6"/>
	<rect x="14.8" y="118.1" class="st0" width="9.1" height="13.6"/>
	<rect x="14.8" y="90.9" class="st1" width="59" height="13.6"/>
	<rect x="14.8" y="90.9" class="st0" width="9.1" height="13.6"/>
	<polygon class="st1" points="107.9,4.6 76.1,43.2 92,43.2 92,111.3 123.8,111.3 123.8,43.2 139.7,43.2 	"/>
	<g>
		<polygon class="st0" points="107.9,4.6 76.1,43.2 85.2,43.2 112.5,10.1 		"/>
		<rect x="92" y="43.2" class="st0" width="9.1" height="68.1"/>
	</g>
	<path class="st2" d="M39.8,88.5c17.4,0,31.6-14.2,31.6-31.6S57.3,25.2,39.8,25.2S8.2,39.4,8.2,56.8S22.4,88.5,39.8,88.5z
		 M39.8,29.4c15.1,0,27.4,12.3,27.4,27.4S54.9,84.2,39.8,84.2S12.4,71.9,12.4,56.8S24.7,29.4,39.8,29.4z"/>
	<path class="st2" d="M41.3,70.6h-3.4c-2.6,0-4.7-2.1-4.7-4.7c0-1.2-1-2.1-2.1-2.1s-2.1,1-2.1,2.1c0,4.9,4,8.9,8.9,8.9h0.1v4.7
		c0,1.2,1,2.1,2.1,2.1c1.2,0,2.1-1,2.1-2.1v-4.7c5.1-0.5,9.1-4.8,9.1-10c0-5.6-4.5-10.1-10.1-10.1h-2.3c-3.2,0-5.8-2.6-5.8-5.8
		s2.6-5.8,5.8-5.8h3.4c2.6,0,4.7,2.1,4.7,4.7V50c0,1.2,1,2.1,2.1,2.1c1.2,0,2.1-1,2.1-2.1v-2.3c0-4.9-4-8.9-8.9-8.9h-0.1v-4.7
		c0-1.2-1-2.1-2.1-2.1s-2.1,1-2.1,2.1v4.7c-5.1,0.5-9.1,4.8-9.1,10C29,54.4,33.5,59,39.1,59h2.3c3.2,0,5.8,2.6,5.8,5.8
		C47.2,68,44.6,70.6,41.3,70.6z"/>
	<path class="st2" d="M73.9,88.8h-59c-1.2,0-2.1,1-2.1,2.1v11.5h-2.4c-1.2,0-2.1,1-2.1,2.1v13.6c0,1.2,1,2.1,2.1,2.1h2.4v9.4h-2.4
		c-1.2,0-2.1,1-2.1,2.1v13.6c0,1.2,1,2.1,2.1,2.1h59c1.2,0,2.1-1,2.1-2.1v-11.5h2.4c1.2,0,2.1-1,2.1-2.1v-13.6c0-1.2-1-2.1-2.1-2.1
		h-2.4v-9.4h2.4c1.2,0,2.1-1,2.1-2.1V90.9C76,89.7,75,88.8,73.9,88.8z M67.2,143.2H12.4v-9.4h54.8V143.2z M71.7,129.6H17v-9.4h54.8
		V129.6z M67.2,116H12.4v-9.4h54.8V116z M71.7,102.4H17V93h54.8V102.4z"/>
	<path class="st2" d="M141.4,41.9L109.6,3.3c-0.8-1-2.4-1-3.3,0L74.5,41.9c-1.1,1.4-0.1,3.5,1.6,3.5h13.8v66c0,1.2,1,2.1,2.1,2.1
		h31.8c1.2,0,2.1-1,2.1-2.1v-8.9c0-1.2-1-2.1-2.1-2.1s-2.1,1-2.1,2.1v6.8H94.2v-66c0-1.2-1-2.1-2.1-2.1H80.7L107.9,8l27.3,33.1
		h-11.4c-1.2,0-2.1,1-2.1,2.1v49.1c0,1.2,1,2.1,2.1,2.1s2.1-1,2.1-2.1v-47h13.8C141.5,45.3,142.5,43.2,141.4,41.9z"/>
	<path class="st2" d="M123.8,120.5H92c-1.2,0-2.1,1-2.1,2.1c0,1.2,1,2.1,2.1,2.1h31.8c1.2,0,2.1-1,2.1-2.1
		C125.9,121.5,125,120.5,123.8,120.5z"/>
	<path class="st2" d="M123.8,131.9H92c-1.2,0-2.1,1-2.1,2.1s1,2.1,2.1,2.1h31.8c1.2,0,2.1-1,2.1-2.1
		C125.9,132.8,125,131.9,123.8,131.9z"/>
	<path class="st2" d="M123.8,143.2H92c-1.2,0-2.1,1-2.1,2.1c0,1.2,1,2.1,2.1,2.1h31.8c1.2,0,2.1-1,2.1-2.1
		C125.9,144.2,125,143.2,123.8,143.2z"/>
</g>
</svg>
