<?xml version="1.0" encoding="utf-8"?>
<!-- Generator: Adobe Illustrator 22.1.0, SVG Export Plug-In . SVG Version: 6.00 Build 0)  -->
<svg version="1.1" id="Слой_1" xmlns="http://www.w3.org/2000/svg" xmlns:xlink="http://www.w3.org/1999/xlink" x="0px" y="0px"
	 viewBox="0 0 50 50" style="enable-background:new 0 0 50 50;" xml:space="preserve">
<style type="text/css">
	.st0{fill:#FFFFFF;}
	.st1{fill:#59A9FF;}
</style>
<g>
	<ellipse transform="matrix(0.7071 -0.7071 0.7071 0.7071 -10.3553 25)" class="st0" cx="25" cy="25" rx="25" ry="25"/>
	<g>
		<g>
			<path class="st1" d="M25,41.5c-3.4,0-6.7-1-9.5-3l-4.8,2.2l-0.3,0c-0.4,0-0.8-0.2-1-0.5c-0.2-0.3-0.2-0.8-0.1-1.1l2.1-4.6
				c-2.2-3.1-3.2-7-2.9-10.8c0.6-7.7,6.6-14,14.2-15c5.5-0.7,11,1.4,14.7,5.5c3.1,3.6,4.6,8.4,4,13.1c-1,7.6-7.3,13.6-15,14.2
				C25.9,41.5,25.4,41.5,25,41.5z M15.8,36.3l0.5,0.3c2.9,2.2,6.3,3.2,10,2.9C33,39,38.6,33.7,39.5,27c0.6-4.3-0.7-8.4-3.5-11.6
				c-3.2-3.7-8.1-5.5-13-4.9c-6.7,0.9-12,6.5-12.6,13.3c-0.3,3.6,0.7,7.1,2.9,10l0.3,0.5l-1.8,3.9L15.8,36.3z"/>
		</g>
	</g>
	<path class="st1" d="M32.1,26.9l-0.4-0.1c-0.6-0.1-1.2-0.3-1.9-0.4c-0.5-0.1-1.1,0.1-1.4,0.5c-0.3,0.3-0.4,0.6-0.6,1c0,0,0,0,0,0
		c-2-0.4-4.8-2.8-6.2-5.2c0,0,0,0,0,0c0.7-0.7,0.9-1.7,0.4-2.6c-0.3-0.7-0.7-1.3-1-2l-0.3-0.5c-0.4-0.8-1-0.9-1.3-0.9
		c-0.1,0-0.2,0-0.4,0c-1,0.2-1.9,0.8-2.6,1.7c-0.4,0.5-0.6,1.2-0.3,1.9l0.1,0.4c0.2,0.6,0.4,1.1,0.6,1.7c2.5,4.9,6,8.2,10.6,9.9
		c1,0.4,2.2,0.7,3.4,0.7c0.3,0,0.6,0,0.8-0.1c0.8-0.1,1.3-0.6,1.4-1.4c0.1-0.8,0.3-1.9,0.3-2.9C33.6,27.7,33.1,27.2,32.1,26.9z"/>
</g>
</svg>
