<?xml version="1.0" encoding="utf-8"?>
<!-- Generator: Adobe Illustrator 22.1.0, SVG Export Plug-In . SVG Version: 6.00 Build 0)  -->
<svg version="1.1" id="Слой_1" xmlns="http://www.w3.org/2000/svg" xmlns:xlink="http://www.w3.org/1999/xlink" x="0px" y="0px"
	 viewBox="0 0 50 50" style="enable-background:new 0 0 50 50;" xml:space="preserve">
<style type="text/css">
	.st0{fill:#FFFFFF;}
	.st1{fill:#59A9FF;}
</style>
<g>
	<g>
		<g>
			<g>
				<path class="st0" d="M50,25c0,13.5-10.7,24.5-24,25c-0.3,0-0.6,0-1,0c-2.6,0-5-0.4-7.4-1.1C7.4,45.8,0,36.2,0,25
					C0,11.2,11.2,0,25,0C38.8,0,50,11.2,50,25z"/>
			</g>
		</g>
	</g>
	<g>
		<path class="st1" d="M19.5,32.9c-2.8-0.3-4.7-1.6-5.7-4.2c0.9,0,1.7-0.1,2.5-0.1c-2.9-1.1-4.5-3.1-4.7-6.2
			c0.9,0.2,1.7,0.5,2.6,0.7c-2.6-3.1-3.2-5.7-1.6-8.3c3.3,3.9,7.6,6.1,12.6,6.4c0-0.9,0-1.8,0.1-2.7c0.9-4.7,6.6-6.5,10.1-3.4
			c0.4,0.3,0.7,0.4,1.1,0.2c1.1-0.4,2.1-0.8,3.2-1.2c-0.4,1.3-1.3,2.3-2.4,3.3c1-0.3,2.1-0.5,3.1-0.8c0,0,0.1,0.1,0.1,0.1
			c-0.8,0.8-1.5,1.7-2.4,2.4c-0.5,0.4-0.6,0.8-0.6,1.4c0,7.2-4.5,13.9-11.2,16.4c-5.4,2-10.6,1.4-15.6-1.5
			C13.9,35.7,16.9,34.9,19.5,32.9z"/>
	</g>
</g>
</svg>
